<svg width="64" height="64" viewBox="0 0 64 64" fill="none" xmlns="http://www.w3.org/2000/svg">
<path d="M26.6663 5.33301H10.6663C7.72082 5.33301 5.33301 7.72082 5.33301 10.6663V53.333C5.33301 56.2785 7.72082 58.6663 10.6663 58.6663H26.6663C29.6119 58.6663 31.9997 56.2785 31.9997 53.333V10.6663C31.9997 7.72082 29.6119 5.33301 26.6663 5.33301Z" fill="#77F1F3"/>
<path d="M58.667 53.3333V37.3333C58.667 34.3878 56.2792 32 53.3337 32H10.667C7.72148 32 5.33366 34.3878 5.33366 37.3333V53.3333C5.33366 56.2789 7.72148 58.6667 10.667 58.6667H53.3337C56.2792 58.6667 58.667 56.2789 58.667 53.3333Z" fill="#9996FF"/>
<g style="mix-blend-mode:multiply">
<path d="M55.9219 19.3921L44.6081 8.07836C42.5254 5.99557 39.1485 5.99557 37.0657 8.07836L6.89579 38.2483C4.813 40.331 4.813 43.7079 6.89579 45.7907L18.2095 57.1044C20.2923 59.1872 23.6692 59.1872 25.752 57.1044L55.9219 26.9345C58.0047 24.8517 58.0047 21.4749 55.9219 19.3921Z" fill="#18EBED"/>
</g>
<path d="M31.9997 53.3333V32H10.6663C9.25185 32 7.8953 32.5619 6.8951 33.5621C5.89491 34.5623 5.33301 35.9188 5.33301 37.3333V53.3333C5.33301 54.7478 5.89491 56.1044 6.8951 57.1046C7.8953 58.1048 9.25185 58.6667 10.6663 58.6667H26.6663C28.0808 58.6667 29.4374 58.1048 30.4376 57.1046C31.4378 56.1044 31.9997 54.7478 31.9997 53.3333Z" fill="#6666FF"/>
<path d="M32 32V50.856L50.856 32H32Z" fill="#8080FF"/>
<path d="M18.6667 47.9998C20.1394 47.9998 21.3333 46.8059 21.3333 45.3332C21.3333 43.8604 20.1394 42.6665 18.6667 42.6665C17.1939 42.6665 16 43.8604 16 45.3332C16 46.8059 17.1939 47.9998 18.6667 47.9998Z" fill="white"/>
<path d="M13.1445 32H32.0005V13.144L13.1445 32Z" fill="#13DDE2"/>
</svg>
